<svg xmlns="http://www.w3.org/2000/svg" viewBox="0 0 512 512" role="img" aria-labelledby="title desc">
  <title id="title">Chameleon emblem</title>
  <desc id="desc">Stylized green chameleon curled into a spiral tail</desc>
  <defs>
    <linearGradient id="bodyGradient" x1="0%" y1="0%" x2="100%" y2="100%">
      <stop offset="0%" stop-color="#6ee7b7" />
      <stop offset="50%" stop-color="#34d399" />
      <stop offset="100%" stop-color="#10b981" />
    </linearGradient>
    <linearGradient id="bellyGradient" x1="0%" y1="0%" x2="0%" y2="100%">
      <stop offset="0%" stop-color="#bbf7d0" stop-opacity="0.85" />
      <stop offset="100%" stop-color="#6ee7b7" stop-opacity="0.45" />
    </linearGradient>
  </defs>
  <g fill="none" fill-rule="evenodd">
    <path
      d="M140 164c48-60 158-72 225-17 30 25 48 55 55 92 2 12 2 24 0 36-7 42-35 74-75 92-36 16-71 17-102 2-20-10-33-25-39-45-5-15-5-29-2-46-33 17-55 54-52 95 2 39 25 68 61 81 42 15 98 3 134-26 84-67 92-203 11-282C322 100 246 78 184 97c-40 12-72 38-90 71-18 36-20 80-5 118 6 15 15 30 27 43l-41 25c-23-27-39-58-45-94-12-69 18-140 78-180 64-43 154-47 222-9 103 56 147 181 98 289-31 70-101 124-178 133-47 5-91-4-130-26-52-30-85-79-92-138-6-47 6-94 32-132 8-12 18-23 29-34Z"
      fill="url(#bodyGradient)"
    />
    <path
      d="M331 109c39 19 65 54 74 96 10 44-3 87-35 118-25 24-58 36-94 35-34-2-59-15-74-39-13-20-15-46-7-73-46 24-69 72-60 119 8 41 37 71 78 82 45 12 98 0 135-31 74-62 84-174 23-252-32-40-72-64-119-72l19-43Z"
      fill="#0f766e" opacity=".2"
    />
    <path
      d="M309 134c23 5 42 17 57 36 20 25 28 54 22 84-8 35-31 60-66 73-27 10-52 9-75-3-15-8-25-20-30-35-9-28-2-58 20-84l-20-16c-27 32-36 71-26 111 8 30 27 52 55 65 33 16 73 16 109 0 53-25 85-73 88-132 4-67-39-131-104-157l-30 58Z"
      fill="url(#bellyGradient)"
    />
    <circle cx="352" cy="170" r="40" fill="#0f766e" />
    <circle cx="352" cy="170" r="22" fill="#f8fafc" />
    <circle cx="362" cy="170" r="10" fill="#0f172a" />
    <path
      d="M248 360c-10 20-29 33-52 35-11 1-23 0-35-4-20-7-35-20-45-38l56-33c7 9 18 16 31 19 15 4 30 2 45-4Z"
      fill="#0f766e"
    />
    <path
      d="M148 372c-8-8-14-18-18-30-12-36-2-74 25-100 15-14 33-22 53-24 3-15 9-29 18-41-29-6-55-2-77 13-22 15-36 35-42 61-10 43 3 86 35 117l6 4Z"
      fill="#0f766e" opacity=".25"
    />
    <path
      d="M334 84c-9-4-18-7-27-9-12-3-25-4-38-3l12-24c12-2 24-1 37 3 15 4 28 10 40 19l-24 14Z"
      fill="#0f766e" opacity=".35"
    />
  </g>
</svg>
