<svg width="256" height="256" viewBox="0 0 256 256" fill="none" xmlns="http://www.w3.org/2000/svg">
<rect width="256" height="256" fill="#1E1E1E"/>
<g clip-path="url(#clip0_0_1)">
<path d="M232 0H24C10.7452 0 0 10.7452 0 24V232C0 245.255 10.7452 256 24 256H232C245.255 256 256 245.255 256 232V24C256 10.7452 245.255 0 232 0Z" fill="#100F0E"/>
<path d="M72.6546 74.1363C75.7591 74.1363 78.2758 71.6196 78.2758 68.5151C78.2758 65.4106 75.7591 62.8939 72.6546 62.8939C69.5501 62.8939 67.0334 65.4106 67.0334 68.5151C67.0334 71.6196 69.5501 74.1363 72.6546 74.1363Z" fill="#AFA597"/>
<path d="M168.936 49.3269C141.747 42.4482 120.01 44.1747 91.2379 61.3646C90.5785 55.0841 74.0412 36.2357 53.8742 49.4697C32.3817 46.812 32.3817 68.9705 32.3817 68.9705C32.3817 68.9705 20.6363 89.6269 20.48 97.4096C20.3712 102.616 23.5115 104.023 26.5158 104.92C42.0472 96.0774 56.1444 98.1777 67.5975 99.8906C73.5654 100.781 78.738 101.535 82.6055 100.448C83.9446 100.061 85.3516 100.856 85.7322 102.202C86.1129 103.541 85.3244 104.948 83.9854 105.335C79.0643 106.715 73.4023 105.879 66.8499 104.9C56.5998 103.371 44.0795 101.597 30.6349 108.536C43.3998 130.777 78.772 138.321 104.465 120.561C110.073 120.914 117.427 121.75 125.359 122.403C126.821 122.518 125.387 127.14 123.966 131.749C123.47 133.353 104.506 137.322 104.132 138.729C103.445 141.373 121.376 139.219 122.654 141.047C123.925 142.889 120.343 151.304 121.995 155.28C123.096 157.924 132.054 155.205 134.563 148.986C135.827 145.887 130.532 139.749 131.708 137.281C135.242 129.92 138.328 123.191 138.879 123.205C142.556 123.32 146.22 123.327 149.781 123.157C157.204 122.817 164.368 122.124 171.002 121.546C171.845 121.471 173.259 124.435 174.754 127.888C175.434 129.465 162.329 131.857 163.002 133.407C164.382 136.575 175.896 134.44 180.192 138.396C184.494 142.366 184.63 153.051 187.798 154.274C189.544 154.947 196.865 149.693 195.404 143.032C193.269 133.312 181.565 120.778 182.176 120.751C190.299 120.377 197.048 120.764 201.684 123.164C218.881 132.061 206.32 198.251 163.328 201.568C139.912 203.37 132.088 184.637 134.998 174.19C137.873 163.865 150.76 158.251 159.698 159.59C168.616 160.895 170.275 169.173 166.312 174.781C165.789 175.522 165.184 176.208 164.538 176.847C163.002 175.291 160.881 174.326 158.529 174.326C153.86 174.326 150.087 178.112 150.087 182.768C150.087 187.437 153.866 191.203 158.529 191.203C162.743 191.203 166.21 188.11 166.842 184.052C169.112 183.488 171.355 182.387 173.259 180.409C180.858 172.47 179.206 158.251 164.803 153.37C148.687 147.919 126.1 158.047 125.434 175.243C124.775 192.433 140.551 212.6 167.719 211.05C208.06 208.726 237.077 166.842 235.452 128.18C234.052 95.4249 216.556 61.3646 168.936 49.3269ZM67.5296 86.5003C58.4894 86.5003 51.1621 79.173 51.1621 70.1329C51.1621 61.0927 58.4894 53.7654 67.5296 53.7654C76.5629 53.7654 83.8902 61.0927 83.8902 70.1329C83.897 79.173 76.5697 86.5003 67.5296 86.5003Z" fill="#AFA597"/>
</g>
<defs>
<clipPath id="clip0_0_1">
<rect width="256" height="256" fill="white"/>
</clipPath>
</defs>
</svg>
